<svg width="43" height="43" viewBox="0 0 43 43" fill="none" xmlns="http://www.w3.org/2000/svg">
<g clip-path="url(#clip0_2771_7860)">
<rect width="43" height="43" rx="21.5" fill="#3DCBB1"/>
<rect x="4.70312" y="4.70312" width="33.5938" height="33.5938" rx="16.7969" fill="#3DCBB1"/>
<mask id="path-3-outside-1_2771_7860" maskUnits="userSpaceOnUse" x="6.78955" y="16.2873" width="29" height="31" fill="black">
<rect fill="white" x="6.78955" y="16.2873" width="29" height="31"/>
<path d="M22.0395 45.8292C13.8726 45.8292 7.95071 39.7138 7.95071 31.7405C7.95071 23.7671 13.8726 17.6517 22.0395 17.6517C26.9551 17.6517 31.2901 20.0901 33.6511 23.922L28.3097 27.0184C27.1099 24.9283 24.7876 23.6897 22.0395 23.6897C17.24 23.6897 14.1436 26.9023 14.1436 31.7405C14.1436 36.5786 17.24 39.7912 22.0395 39.7912C24.7876 39.7912 27.1486 38.5526 28.3097 36.4625L33.6511 39.5589C31.3288 43.3908 26.9938 45.8292 22.0395 45.8292Z"/>
</mask>
<path d="M22.0395 45.8292C13.8726 45.8292 7.95071 39.7138 7.95071 31.7405C7.95071 23.7671 13.8726 17.6517 22.0395 17.6517C26.9551 17.6517 31.2901 20.0901 33.6511 23.922L28.3097 27.0184C27.1099 24.9283 24.7876 23.6897 22.0395 23.6897C17.24 23.6897 14.1436 26.9023 14.1436 31.7405C14.1436 36.5786 17.24 39.7912 22.0395 39.7912C24.7876 39.7912 27.1486 38.5526 28.3097 36.4625L33.6511 39.5589C31.3288 43.3908 26.9938 45.8292 22.0395 45.8292Z" fill="white"/>
<path d="M33.6511 23.922L34.1051 24.7051L34.9096 24.2388L34.4218 23.4471L33.6511 23.922ZM28.3097 27.0184L27.5247 27.4691L27.9773 28.2575L28.7638 27.8016L28.3097 27.0184ZM28.3097 36.4625L28.7638 35.6793L27.9661 35.2169L27.5184 36.0229L28.3097 36.4625ZM33.6511 39.5589L34.4253 40.0281L34.9037 39.2387L34.1051 38.7758L33.6511 39.5589ZM22.0395 44.924C14.3808 44.924 8.85598 39.222 8.85598 31.7405H7.04545C7.04545 40.2055 13.3645 46.7345 22.0395 46.7345V44.924ZM8.85598 31.7405C8.85598 24.2589 14.3808 18.557 22.0395 18.557V16.7464C13.3645 16.7464 7.04545 23.2754 7.04545 31.7405H8.85598ZM22.0395 18.557C26.654 18.557 30.6909 20.8435 32.8804 24.3968L34.4218 23.4471C31.8892 19.3368 27.2561 16.7464 22.0395 16.7464V18.557ZM33.1971 23.1388L27.8557 26.2352L28.7638 27.8016L34.1051 24.7051L33.1971 23.1388ZM29.0948 26.5677C27.7092 24.1539 25.0596 22.7845 22.0395 22.7845V24.595C24.5155 24.595 26.5106 25.7027 27.5247 27.4691L29.0948 26.5677ZM22.0395 22.7845C19.4318 22.7845 17.2118 23.6619 15.6439 25.2685C14.0782 26.8727 13.2383 29.1261 13.2383 31.7405H15.0488C15.0488 29.5166 15.7572 27.7446 16.9396 26.5331C18.1197 25.3239 19.8477 24.595 22.0395 24.595V22.7845ZM13.2383 31.7405C13.2383 34.3548 14.0782 36.6082 15.6439 38.2124C17.2118 39.819 19.4318 40.6964 22.0395 40.6964V38.8859C19.8477 38.8859 18.1197 38.157 16.9396 36.9478C15.7572 35.7363 15.0488 33.9643 15.0488 31.7405H13.2383ZM22.0395 40.6964C25.0507 40.6964 27.7507 39.3328 29.1011 36.9021L27.5184 36.0229C26.5464 37.7724 24.5244 38.8859 22.0395 38.8859V40.6964ZM27.8557 37.2457L33.1971 40.3421L34.1051 38.7758L28.7638 35.6793L27.8557 37.2457ZM32.8769 39.0897C30.728 42.6355 26.6956 44.924 22.0395 44.924V46.7345C27.2919 46.7345 31.9296 44.146 34.4253 40.0281L32.8769 39.0897Z" fill="white" mask="url(#path-3-outside-1_2771_7860)"/>
</g>
<defs>
<clipPath id="clip0_2771_7860">
<rect width="43" height="43" rx="21.5" fill="white"/>
</clipPath>
</defs>
</svg>
