<svg xmlns="http://www.w3.org/2000/svg" version="1.1" xmlns:xlink="http://www.w3.org/1999/xlink" xmlns:svgjs="http://svgjs.dev/svgjs" width="43" height="43"><svg width="43" height="43" viewBox="0 0 43 43" fill="none" xmlns="http://www.w3.org/2000/svg">
<g clip-path="url(#clip0_2761_11474)">
<rect width="43" height="43" rx="21.5" fill="#3DCBB1"></rect>
<rect x="4.70312" y="4.70312" width="33.5938" height="33.5938" rx="16.7969" fill="#3DCBB1"></rect>
<mask id="SvgjsMask1036" maskUnits="userSpaceOnUse" x="6.78946" y="15.8345" width="29" height="31" fill="black">
<rect fill="white" x="6.78946" y="15.8345" width="29" height="31"></rect>
<path d="M22.0394 45.3763C13.8725 45.3763 7.95062 39.2609 7.95062 31.2876C7.95062 23.3143 13.8725 17.1988 22.0394 17.1988C26.955 17.1988 31.29 19.6373 33.651 23.4691L28.3097 26.5655C27.1098 24.4754 24.7875 23.2369 22.0394 23.2369C17.2399 23.2369 14.1435 26.4494 14.1435 31.2876C14.1435 36.1258 17.2399 39.3383 22.0394 39.3383C24.7875 39.3383 27.1485 38.0997 28.3097 36.0096L33.651 39.1061C31.3287 42.9379 26.9937 45.3763 22.0394 45.3763Z"></path>
</mask>
<g filter="url(#filter0_i_2761_11474)">
<path d="M22.0394 45.3763C13.8725 45.3763 7.95062 39.2609 7.95062 31.2876C7.95062 23.3143 13.8725 17.1988 22.0394 17.1988C26.955 17.1988 31.29 19.6373 33.651 23.4691L28.3097 26.5655C27.1098 24.4754 24.7875 23.2369 22.0394 23.2369C17.2399 23.2369 14.1435 26.4494 14.1435 31.2876C14.1435 36.1258 17.2399 39.3383 22.0394 39.3383C24.7875 39.3383 27.1485 38.0997 28.3097 36.0096L33.651 39.1061C31.3287 42.9379 26.9937 45.3763 22.0394 45.3763Z" fill="white"></path>
</g>
<path d="M33.651 23.4691L34.105 24.2523L34.9095 23.7859L34.4217 22.9942L33.651 23.4691ZM28.3097 26.5655L27.5246 27.0162L27.9772 27.8046L28.7637 27.3487L28.3097 26.5655ZM28.3097 36.0096L28.7637 35.2265L27.9661 34.7641L27.5183 35.57L28.3097 36.0096ZM33.651 39.1061L34.4252 39.5753L34.9036 38.7859L34.105 38.3229L33.651 39.1061ZM22.0394 44.4711C14.3807 44.4711 8.85588 38.7692 8.85588 31.2876H7.04536C7.04536 39.7526 13.3644 46.2816 22.0394 46.2816V44.4711ZM8.85588 31.2876C8.85588 23.806 14.3807 18.1041 22.0394 18.1041V16.2936C13.3644 16.2936 7.04536 22.8225 7.04536 31.2876H8.85588ZM22.0394 18.1041C26.6539 18.1041 30.6909 20.3906 32.8803 23.944L34.4217 22.9942C31.8891 18.8839 27.256 16.2936 22.0394 16.2936V18.1041ZM33.197 22.6859L27.8556 25.7823L28.7637 27.3487L34.105 24.2523L33.197 22.6859ZM29.0947 26.1148C27.7091 23.7011 25.0595 22.3316 22.0394 22.3316V24.1421C24.5154 24.1421 26.5105 25.2498 27.5246 27.0162L29.0947 26.1148ZM22.0394 22.3316C19.4317 22.3316 17.2118 23.209 15.6438 24.8156C14.0781 26.4199 13.2382 28.6732 13.2382 31.2876H15.0487C15.0487 29.0638 15.7571 27.2918 16.9395 26.0802C18.1196 24.871 19.8476 24.1421 22.0394 24.1421V22.3316ZM13.2382 31.2876C13.2382 33.9019 14.0781 36.1553 15.6438 37.7595C17.2118 39.3662 19.4317 40.2436 22.0394 40.2436V38.433C19.8476 38.433 18.1196 37.7042 16.9395 36.495C15.7571 35.2834 15.0487 33.5114 15.0487 31.2876H13.2382ZM22.0394 40.2436C25.0506 40.2436 27.7507 38.8799 29.101 36.4493L27.5183 35.57C26.5463 37.3196 24.5243 38.433 22.0394 38.433V40.2436ZM27.8556 36.7928L33.197 39.8893L34.105 38.3229L28.7637 35.2265L27.8556 36.7928ZM32.8768 38.6369C30.7279 42.1826 26.6955 44.4711 22.0394 44.4711V46.2816C27.2919 46.2816 31.9295 43.6932 34.4252 39.5753L32.8768 38.6369Z" fill="white" mask="url(#path-3-outside-1_2761_11474)"></path>
</g>
<defs>
<filter id="SvgjsFilter1035" x="7.04535" y="16.2935" width="27.8642" height="30.8935" filterUnits="userSpaceOnUse" color-interpolation-filters="sRGB">
<feFlood flood-opacity="0" result="BackgroundImageFix"></feFlood>
<feBlend mode="normal" in="SourceGraphic" in2="BackgroundImageFix" result="shape"></feBlend>
<feColorMatrix in="SourceAlpha" type="matrix" values="0 0 0 0 0 0 0 0 0 0 0 0 0 0 0 0 0 0 127 0" result="hardAlpha"></feColorMatrix>
<feOffset dy="0.905263"></feOffset>
<feGaussianBlur stdDeviation="0.452632"></feGaussianBlur>
<feComposite in2="hardAlpha" operator="arithmetic" k2="-1" k3="1"></feComposite>
<feColorMatrix type="matrix" values="0 0 0 0 0 0 0 0 0 0 0 0 0 0 0 0 0 0 0.25 0"></feColorMatrix>
<feBlend mode="normal" in2="shape" result="effect1_innerShadow_2761_11474"></feBlend>
</filter>
<clipPath id="SvgjsClipPath1034">
<rect width="43" height="43" rx="21.5" fill="white"></rect>
</clipPath>
</defs>
</svg><style>@media (prefers-color-scheme: light) { :root { filter: none; } }
@media (prefers-color-scheme: dark) { :root { filter: none; } }
</style></svg>